<mxfile host="Electron" modified="2020-05-29T07:24:37.794Z" agent="Mozilla/5.0 (X11; Linux x86_64) AppleWebKit/537.36 (KHTML, like Gecko) draw.io/12.3.2 Chrome/78.0.3904.113 Electron/7.1.2 Safari/537.36" etag="X1fVr0dpQ8kmG-PCPpqS" version="12.3.2" type="device" pages="1">
  <diagram id="_ujfOcLCkQtmCmwxbNUC" name="Page-1">
    <mxGraphModel dx="544" dy="336" grid="1" gridSize="10" guides="0" tooltips="1" connect="1" arrows="1" fold="1" page="1" pageScale="1" pageWidth="827" pageHeight="1169" math="0" shadow="0">
      <root>
        <mxCell id="0"/>
        <mxCell id="1" parent="0"/>
        <mxCell id="p_ErpRYE4Hb0-FulIthc-41" value="&lt;b&gt;tcg_gen_atomic_fetch_or_i32&lt;/b&gt;" style="rounded=0;whiteSpace=wrap;html=1;" parent="1" vertex="1">
          <mxGeometry x="160" y="200" width="180" height="20" as="geometry"/>
        </mxCell>
        <mxCell id="p_ErpRYE4Hb0-FulIthc-142" style="edgeStyle=orthogonalEdgeStyle;rounded=0;orthogonalLoop=1;jettySize=auto;html=1;strokeWidth=2;fillColor=#f8cecc;strokeColor=#b85450;" parent="1" source="p_ErpRYE4Hb0-FulIthc-138" target="p_ErpRYE4Hb0-FulIthc-112" edge="1">
          <mxGeometry relative="1" as="geometry">
            <Array as="points">
              <mxPoint x="410" y="560"/>
              <mxPoint x="260" y="560"/>
              <mxPoint x="260" y="510"/>
              <mxPoint x="410" y="510"/>
            </Array>
          </mxGeometry>
        </mxCell>
        <mxCell id="p_ErpRYE4Hb0-FulIthc-136" style="edgeStyle=orthogonalEdgeStyle;rounded=0;orthogonalLoop=1;jettySize=auto;html=1;strokeWidth=2;fillColor=#f5f5f5;strokeColor=#666666;" parent="1" source="p_ErpRYE4Hb0-FulIthc-135" target="p_ErpRYE4Hb0-FulIthc-104" edge="1">
          <mxGeometry relative="1" as="geometry"/>
        </mxCell>
        <mxCell id="p_ErpRYE4Hb0-FulIthc-107" value="" style="rounded=1;whiteSpace=wrap;html=1;dashed=1;strokeColor=#666600;fillColor=none;" parent="1" vertex="1">
          <mxGeometry x="230" y="350" width="450" height="150" as="geometry"/>
        </mxCell>
        <mxCell id="p_ErpRYE4Hb0-FulIthc-121" style="edgeStyle=orthogonalEdgeStyle;rounded=0;orthogonalLoop=1;jettySize=auto;html=1;strokeWidth=2;fillColor=#ffe6cc;strokeColor=#d79b00;" parent="1" source="p_ErpRYE4Hb0-FulIthc-54" target="p_ErpRYE4Hb0-FulIthc-103" edge="1">
          <mxGeometry relative="1" as="geometry">
            <mxPoint x="570" y="400" as="targetPoint"/>
            <Array as="points">
              <mxPoint x="440" y="310"/>
              <mxPoint x="570" y="310"/>
            </Array>
          </mxGeometry>
        </mxCell>
        <mxCell id="p_ErpRYE4Hb0-FulIthc-1" value="&lt;b&gt;&lt;font color=&quot;#b85450&quot;&gt;case&lt;/font&gt;&lt;/b&gt;" style="rounded=0;whiteSpace=wrap;html=1;" parent="1" vertex="1">
          <mxGeometry x="80" y="80" width="40" height="20" as="geometry"/>
        </mxCell>
        <mxCell id="p_ErpRYE4Hb0-FulIthc-2" value="0x1ab" style="rounded=0;whiteSpace=wrap;html=1;" parent="1" vertex="1">
          <mxGeometry x="120" y="80" width="40" height="20" as="geometry"/>
        </mxCell>
        <mxCell id="p_ErpRYE4Hb0-FulIthc-4" value="target/i386/translate.c: 6816" style="text;html=1;align=left;verticalAlign=middle;resizable=0;points=[];;autosize=1;" parent="1" vertex="1">
          <mxGeometry x="80" y="60" width="160" height="20" as="geometry"/>
        </mxCell>
        <mxCell id="p_ErpRYE4Hb0-FulIthc-6" value="&lt;font color=&quot;#999999&quot;&gt;/// 若有LOCK前缀&lt;/font&gt;" style="text;html=1;align=left;verticalAlign=middle;resizable=0;points=[];;autosize=1;" parent="1" vertex="1">
          <mxGeometry x="120" y="120" width="110" height="20" as="geometry"/>
        </mxCell>
        <mxCell id="p_ErpRYE4Hb0-FulIthc-32" value="&lt;font color=&quot;#999999&quot;&gt;/// 6825~6848应该是按照modrm的指示处理操作数&lt;/font&gt;" style="text;html=1;align=left;verticalAlign=middle;resizable=0;points=[];;autosize=1;" parent="1" vertex="1">
          <mxGeometry x="120" y="100" width="280" height="20" as="geometry"/>
        </mxCell>
        <mxCell id="p_ErpRYE4Hb0-FulIthc-34" value="&lt;b&gt;&lt;font color=&quot;#b85450&quot;&gt;case&lt;/font&gt;&lt;/b&gt;" style="rounded=0;whiteSpace=wrap;html=1;" parent="1" vertex="1">
          <mxGeometry x="120" y="140" width="40" height="20" as="geometry"/>
        </mxCell>
        <mxCell id="p_ErpRYE4Hb0-FulIthc-35" value="1" style="rounded=0;whiteSpace=wrap;html=1;" parent="1" vertex="1">
          <mxGeometry x="160" y="140" width="20" height="20" as="geometry"/>
        </mxCell>
        <mxCell id="p_ErpRYE4Hb0-FulIthc-36" value="tcg/tcg-op.c: 3282, 3261~3268" style="text;html=1;align=left;verticalAlign=middle;resizable=0;points=[];;autosize=1;" parent="1" vertex="1">
          <mxGeometry x="280" y="160" width="180" height="20" as="geometry"/>
        </mxCell>
        <mxCell id="p_ErpRYE4Hb0-FulIthc-37" value="&lt;b&gt;tcg_gen_atomic_fetch_or_tl&lt;/b&gt;" style="rounded=0;whiteSpace=wrap;html=1;" parent="1" vertex="1">
          <mxGeometry x="160" y="180" width="180" height="20" as="geometry"/>
        </mxCell>
        <mxCell id="evB2gcFU7HcfF-IfNhhR-15" style="edgeStyle=orthogonalEdgeStyle;rounded=0;orthogonalLoop=1;jettySize=auto;html=1;strokeWidth=2;fillColor=#dae8fc;strokeColor=#6c8ebf;" edge="1" parent="1" source="p_ErpRYE4Hb0-FulIthc-38" target="p_ErpRYE4Hb0-FulIthc-52">
          <mxGeometry relative="1" as="geometry"/>
        </mxCell>
        <mxCell id="p_ErpRYE4Hb0-FulIthc-38" value="TCGv_i32 ret" style="rounded=0;whiteSpace=wrap;html=1;fillColor=#dae8fc;strokeColor=#6c8ebf;" parent="1" vertex="1">
          <mxGeometry x="340" y="180" width="60" height="40" as="geometry"/>
        </mxCell>
        <mxCell id="p_ErpRYE4Hb0-FulIthc-40" value="&lt;font color=&quot;#999999&quot;&gt;/// 由宏拼出来的函数&lt;/font&gt;" style="text;html=1;align=left;verticalAlign=middle;resizable=0;points=[];;autosize=1;" parent="1" vertex="1">
          <mxGeometry x="160" y="160" width="120" height="20" as="geometry"/>
        </mxCell>
        <mxCell id="evB2gcFU7HcfF-IfNhhR-14" style="edgeStyle=orthogonalEdgeStyle;rounded=0;orthogonalLoop=1;jettySize=auto;html=1;strokeWidth=2;fillColor=#d5e8d4;strokeColor=#82b366;" edge="1" parent="1" source="p_ErpRYE4Hb0-FulIthc-42" target="p_ErpRYE4Hb0-FulIthc-53">
          <mxGeometry relative="1" as="geometry"/>
        </mxCell>
        <mxCell id="p_ErpRYE4Hb0-FulIthc-42" value="TCGv addr" style="rounded=0;whiteSpace=wrap;html=1;fillColor=#d5e8d4;strokeColor=#82b366;" parent="1" vertex="1">
          <mxGeometry x="400" y="180" width="40" height="40" as="geometry"/>
        </mxCell>
        <mxCell id="evB2gcFU7HcfF-IfNhhR-13" style="edgeStyle=orthogonalEdgeStyle;rounded=0;orthogonalLoop=1;jettySize=auto;html=1;strokeWidth=2;fillColor=#ffe6cc;strokeColor=#d79b00;" edge="1" parent="1" source="p_ErpRYE4Hb0-FulIthc-43" target="p_ErpRYE4Hb0-FulIthc-54">
          <mxGeometry relative="1" as="geometry"/>
        </mxCell>
        <mxCell id="p_ErpRYE4Hb0-FulIthc-43" value="TCGv_i32 val" style="rounded=0;whiteSpace=wrap;html=1;fillColor=#ffe6cc;strokeColor=#d79b00;" parent="1" vertex="1">
          <mxGeometry x="440" y="180" width="60" height="40" as="geometry"/>
        </mxCell>
        <mxCell id="evB2gcFU7HcfF-IfNhhR-8" style="edgeStyle=orthogonalEdgeStyle;rounded=0;orthogonalLoop=1;jettySize=auto;html=1;strokeWidth=2;fillColor=#f5f5f5;strokeColor=#666666;" edge="1" parent="1" source="p_ErpRYE4Hb0-FulIthc-44" target="p_ErpRYE4Hb0-FulIthc-55">
          <mxGeometry relative="1" as="geometry"/>
        </mxCell>
        <mxCell id="p_ErpRYE4Hb0-FulIthc-44" value="TCGArg idx" style="rounded=0;whiteSpace=wrap;html=1;fillColor=#f5f5f5;strokeColor=#666666;fontColor=#333333;" parent="1" vertex="1">
          <mxGeometry x="500" y="180" width="60" height="40" as="geometry"/>
        </mxCell>
        <mxCell id="evB2gcFU7HcfF-IfNhhR-12" style="edgeStyle=orthogonalEdgeStyle;rounded=0;orthogonalLoop=1;jettySize=auto;html=1;strokeWidth=2;fillColor=#f5f5f5;strokeColor=#666666;" edge="1" parent="1" source="p_ErpRYE4Hb0-FulIthc-45" target="p_ErpRYE4Hb0-FulIthc-56">
          <mxGeometry relative="1" as="geometry"/>
        </mxCell>
        <mxCell id="p_ErpRYE4Hb0-FulIthc-45" value="TCGMemOp memop" style="rounded=0;whiteSpace=wrap;html=1;fillColor=#f5f5f5;strokeColor=#666666;fontColor=#333333;" parent="1" vertex="1">
          <mxGeometry x="560" y="180" width="80" height="40" as="geometry"/>
        </mxCell>
        <mxCell id="p_ErpRYE4Hb0-FulIthc-46" value="&lt;font color=&quot;#999999&quot;&gt;/// 若不是平行架构则执行非原子操作调用&lt;b&gt;do_nonatomic_op_i32&lt;/b&gt;，否则如下&lt;/font&gt;" style="text;html=1;align=left;verticalAlign=middle;resizable=0;points=[];;autosize=1;" parent="1" vertex="1">
          <mxGeometry x="200" y="220" width="420" height="20" as="geometry"/>
        </mxCell>
        <mxCell id="p_ErpRYE4Hb0-FulIthc-47" value="&lt;b&gt;do_atomic_op_i32&lt;/b&gt;" style="rounded=0;whiteSpace=wrap;html=1;" parent="1" vertex="1">
          <mxGeometry x="200" y="260" width="110" height="30" as="geometry"/>
        </mxCell>
        <mxCell id="p_ErpRYE4Hb0-FulIthc-48" value="tcg/tcg-op.c: 3164~3185" style="text;html=1;align=left;verticalAlign=middle;resizable=0;points=[];;autosize=1;" parent="1" vertex="1">
          <mxGeometry x="200" y="240" width="140" height="20" as="geometry"/>
        </mxCell>
        <mxCell id="p_ErpRYE4Hb0-FulIthc-117" style="edgeStyle=orthogonalEdgeStyle;rounded=0;orthogonalLoop=1;jettySize=auto;html=1;strokeWidth=2;fillColor=#dae8fc;strokeColor=#6c8ebf;" parent="1" source="p_ErpRYE4Hb0-FulIthc-52" target="p_ErpRYE4Hb0-FulIthc-99" edge="1">
          <mxGeometry relative="1" as="geometry">
            <Array as="points">
              <mxPoint x="340" y="330"/>
              <mxPoint x="510" y="330"/>
            </Array>
          </mxGeometry>
        </mxCell>
        <mxCell id="p_ErpRYE4Hb0-FulIthc-52" value="TCGv_i32 ret" style="rounded=0;whiteSpace=wrap;html=1;fillColor=#dae8fc;strokeColor=#6c8ebf;" parent="1" vertex="1">
          <mxGeometry x="310" y="260" width="60" height="30" as="geometry"/>
        </mxCell>
        <mxCell id="p_ErpRYE4Hb0-FulIthc-119" style="edgeStyle=orthogonalEdgeStyle;rounded=0;orthogonalLoop=1;jettySize=auto;html=1;strokeWidth=2;fillColor=#d5e8d4;strokeColor=#82b366;" parent="1" source="p_ErpRYE4Hb0-FulIthc-53" target="p_ErpRYE4Hb0-FulIthc-102" edge="1">
          <mxGeometry relative="1" as="geometry">
            <Array as="points">
              <mxPoint x="390" y="320"/>
              <mxPoint x="550" y="320"/>
            </Array>
          </mxGeometry>
        </mxCell>
        <mxCell id="p_ErpRYE4Hb0-FulIthc-53" value="TCGv addr" style="rounded=0;whiteSpace=wrap;html=1;fillColor=#d5e8d4;strokeColor=#82b366;" parent="1" vertex="1">
          <mxGeometry x="370" y="260" width="40" height="30" as="geometry"/>
        </mxCell>
        <mxCell id="p_ErpRYE4Hb0-FulIthc-54" value="TCGv_i32 val" style="rounded=0;whiteSpace=wrap;html=1;fillColor=#ffe6cc;strokeColor=#d79b00;" parent="1" vertex="1">
          <mxGeometry x="410" y="260" width="60" height="30" as="geometry"/>
        </mxCell>
        <mxCell id="evB2gcFU7HcfF-IfNhhR-10" style="edgeStyle=orthogonalEdgeStyle;rounded=0;orthogonalLoop=1;jettySize=auto;html=1;strokeWidth=2;fillColor=#f5f5f5;strokeColor=#666666;" edge="1" parent="1" source="p_ErpRYE4Hb0-FulIthc-55" target="p_ErpRYE4Hb0-FulIthc-135">
          <mxGeometry relative="1" as="geometry">
            <Array as="points">
              <mxPoint x="500" y="300"/>
              <mxPoint x="600" y="300"/>
            </Array>
          </mxGeometry>
        </mxCell>
        <mxCell id="p_ErpRYE4Hb0-FulIthc-55" value="TCGArg idx" style="rounded=0;whiteSpace=wrap;html=1;fillColor=#f5f5f5;strokeColor=#666666;fontColor=#333333;" parent="1" vertex="1">
          <mxGeometry x="470" y="260" width="60" height="30" as="geometry"/>
        </mxCell>
        <mxCell id="evB2gcFU7HcfF-IfNhhR-11" style="edgeStyle=orthogonalEdgeStyle;rounded=0;orthogonalLoop=1;jettySize=auto;html=1;strokeWidth=2;fillColor=#f5f5f5;strokeColor=#666666;" edge="1" parent="1" source="p_ErpRYE4Hb0-FulIthc-56" target="p_ErpRYE4Hb0-FulIthc-135">
          <mxGeometry relative="1" as="geometry">
            <Array as="points">
              <mxPoint x="570" y="300"/>
              <mxPoint x="600" y="300"/>
            </Array>
          </mxGeometry>
        </mxCell>
        <mxCell id="p_ErpRYE4Hb0-FulIthc-56" value="TCGMemOp memop" style="rounded=0;whiteSpace=wrap;html=1;fillColor=#f5f5f5;strokeColor=#666666;fontColor=#333333;" parent="1" vertex="1">
          <mxGeometry x="530" y="260" width="80" height="30" as="geometry"/>
        </mxCell>
        <mxCell id="p_ErpRYE4Hb0-FulIthc-57" value="void * const table[]" style="rounded=0;whiteSpace=wrap;html=1;fillColor=#f5f5f5;strokeColor=#666666;fontColor=#333333;" parent="1" vertex="1">
          <mxGeometry x="610" y="260" width="70" height="30" as="geometry"/>
        </mxCell>
        <mxCell id="p_ErpRYE4Hb0-FulIthc-63" style="edgeStyle=orthogonalEdgeStyle;rounded=0;orthogonalLoop=1;jettySize=auto;html=1;strokeWidth=2;fillColor=#f5f5f5;strokeColor=#666666;" parent="1" source="p_ErpRYE4Hb0-FulIthc-60" target="p_ErpRYE4Hb0-FulIthc-57" edge="1">
          <mxGeometry relative="1" as="geometry">
            <Array as="points">
              <mxPoint x="610" y="160"/>
              <mxPoint x="645" y="160"/>
            </Array>
          </mxGeometry>
        </mxCell>
        <mxCell id="p_ErpRYE4Hb0-FulIthc-60" value="static void * const&amp;nbsp;&lt;b&gt;table_fetch_or&lt;/b&gt;[16]" style="rounded=0;whiteSpace=wrap;html=1;" parent="1" vertex="1">
          <mxGeometry x="540" y="120" width="140" height="30" as="geometry"/>
        </mxCell>
        <mxCell id="p_ErpRYE4Hb0-FulIthc-61" value="tcg/tcg-op.c: 3250~3258" style="text;html=1;align=left;verticalAlign=middle;resizable=0;points=[];;autosize=1;" parent="1" vertex="1">
          <mxGeometry x="540" y="100" width="140" height="20" as="geometry"/>
        </mxCell>
        <mxCell id="p_ErpRYE4Hb0-FulIthc-62" value="&lt;font color=&quot;#999999&quot;&gt;/// 由宏拼出来的函数数组&lt;/font&gt;" style="text;html=1;align=left;verticalAlign=middle;resizable=0;points=[];;autosize=1;" parent="1" vertex="1">
          <mxGeometry x="540" y="80" width="150" height="20" as="geometry"/>
        </mxCell>
        <mxCell id="p_ErpRYE4Hb0-FulIthc-65" value="&lt;font color=&quot;#999999&quot;&gt;/// 根据memop操作数大小(MO_SIZE)和尾端(MO_BSWAP)调用table[]里的helper&lt;/font&gt;" style="text;html=1;align=left;verticalAlign=middle;resizable=0;points=[];;autosize=1;" parent="1" vertex="1">
          <mxGeometry x="240" y="290" width="440" height="20" as="geometry"/>
        </mxCell>
        <mxCell id="p_ErpRYE4Hb0-FulIthc-66" value="&lt;font color=&quot;#666600&quot;&gt;GEN_ATOMIC_HELPERS&lt;/font&gt;" style="rounded=0;whiteSpace=wrap;html=1;" parent="1" vertex="1">
          <mxGeometry x="240" y="390" width="160" height="20" as="geometry"/>
        </mxCell>
        <mxCell id="p_ErpRYE4Hb0-FulIthc-68" value="accel/tcg/tcg-runtime.h: 126" style="text;html=1;align=left;verticalAlign=middle;resizable=0;points=[];;autosize=1;" parent="1" vertex="1">
          <mxGeometry x="240" y="370" width="160" height="20" as="geometry"/>
        </mxCell>
        <mxCell id="p_ErpRYE4Hb0-FulIthc-69" value="NAME" style="rounded=0;whiteSpace=wrap;html=1;" parent="1" vertex="1">
          <mxGeometry x="400" y="390" width="60" height="20" as="geometry"/>
        </mxCell>
        <mxCell id="p_ErpRYE4Hb0-FulIthc-70" value="&lt;font color=&quot;#999999&quot;&gt;/// 用户级模拟和系统级模拟的原子操作helper参数数量不一样，4或5包含返回值&lt;/font&gt;" style="text;html=1;align=left;verticalAlign=middle;resizable=0;points=[];;autosize=1;" parent="1" vertex="1">
          <mxGeometry x="240" y="350" width="440" height="20" as="geometry"/>
        </mxCell>
        <mxCell id="p_ErpRYE4Hb0-FulIthc-71" value="&lt;font color=&quot;#666600&quot;&gt;DEF_HELPER_FLAGS_4&lt;/font&gt;" style="rounded=0;whiteSpace=wrap;html=1;" parent="1" vertex="1">
          <mxGeometry x="280" y="470" width="140" height="20" as="geometry"/>
        </mxCell>
        <mxCell id="p_ErpRYE4Hb0-FulIthc-73" value="name" style="rounded=0;whiteSpace=wrap;html=1;fillColor=#f5f5f5;strokeColor=#666666;fontColor=#333333;" parent="1" vertex="1">
          <mxGeometry x="420" y="470" width="40" height="20" as="geometry"/>
        </mxCell>
        <mxCell id="p_ErpRYE4Hb0-FulIthc-74" value="&lt;span style=&quot;white-space: normal&quot;&gt;fetch_or&lt;/span&gt;" style="text;html=1;align=center;verticalAlign=middle;resizable=0;points=[];;autosize=1;" parent="1" vertex="1">
          <mxGeometry x="400" y="370" width="60" height="20" as="geometry"/>
        </mxCell>
        <mxCell id="p_ErpRYE4Hb0-FulIthc-84" value="include/exec/helper-gen.h： 39~47" style="text;html=1;align=left;verticalAlign=middle;resizable=0;points=[];;autosize=1;" parent="1" vertex="1">
          <mxGeometry x="280" y="450" width="200" height="20" as="geometry"/>
        </mxCell>
        <mxCell id="p_ErpRYE4Hb0-FulIthc-85" value="flags" style="rounded=0;whiteSpace=wrap;html=1;fillColor=#f5f5f5;strokeColor=#666666;fontColor=#333333;" parent="1" vertex="1">
          <mxGeometry x="460" y="470" width="40" height="20" as="geometry"/>
        </mxCell>
        <mxCell id="p_ErpRYE4Hb0-FulIthc-137" style="edgeStyle=orthogonalEdgeStyle;rounded=0;orthogonalLoop=1;jettySize=auto;html=1;strokeWidth=2;fillColor=#dae8fc;strokeColor=#6c8ebf;" parent="1" source="p_ErpRYE4Hb0-FulIthc-88" target="p_ErpRYE4Hb0-FulIthc-113" edge="1">
          <mxGeometry relative="1" as="geometry"/>
        </mxCell>
        <mxCell id="p_ErpRYE4Hb0-FulIthc-88" value="ret" style="rounded=0;whiteSpace=wrap;html=1;fillColor=#dae8fc;strokeColor=#6c8ebf;" parent="1" vertex="1">
          <mxGeometry x="500" y="470" width="20" height="20" as="geometry"/>
        </mxCell>
        <mxCell id="p_ErpRYE4Hb0-FulIthc-118" style="edgeStyle=orthogonalEdgeStyle;rounded=0;orthogonalLoop=1;jettySize=auto;html=1;strokeWidth=2;fillColor=#f5f5f5;strokeColor=#666666;" parent="1" source="p_ErpRYE4Hb0-FulIthc-89" target="p_ErpRYE4Hb0-FulIthc-115" edge="1">
          <mxGeometry relative="1" as="geometry">
            <Array as="points">
              <mxPoint x="530" y="510"/>
              <mxPoint x="630" y="510"/>
            </Array>
          </mxGeometry>
        </mxCell>
        <mxCell id="p_ErpRYE4Hb0-FulIthc-89" value="t1" style="rounded=0;whiteSpace=wrap;html=1;fillColor=#f5f5f5;strokeColor=#666666;fontColor=#333333;" parent="1" vertex="1">
          <mxGeometry x="520" y="470" width="20" height="20" as="geometry"/>
        </mxCell>
        <mxCell id="p_ErpRYE4Hb0-FulIthc-120" style="edgeStyle=orthogonalEdgeStyle;rounded=0;orthogonalLoop=1;jettySize=auto;html=1;strokeWidth=2;fillColor=#d5e8d4;strokeColor=#82b366;" parent="1" source="p_ErpRYE4Hb0-FulIthc-90" target="p_ErpRYE4Hb0-FulIthc-115" edge="1">
          <mxGeometry relative="1" as="geometry">
            <Array as="points">
              <mxPoint x="550" y="510"/>
              <mxPoint x="630" y="510"/>
            </Array>
          </mxGeometry>
        </mxCell>
        <mxCell id="p_ErpRYE4Hb0-FulIthc-90" value="t2" style="rounded=0;whiteSpace=wrap;html=1;fillColor=#d5e8d4;strokeColor=#82b366;" parent="1" vertex="1">
          <mxGeometry x="540" y="470" width="20" height="20" as="geometry"/>
        </mxCell>
        <mxCell id="p_ErpRYE4Hb0-FulIthc-126" style="edgeStyle=orthogonalEdgeStyle;rounded=0;orthogonalLoop=1;jettySize=auto;html=1;strokeWidth=2;fillColor=#fff2cc;strokeColor=#d6b656;" parent="1" source="p_ErpRYE4Hb0-FulIthc-91" target="p_ErpRYE4Hb0-FulIthc-115" edge="1">
          <mxGeometry relative="1" as="geometry">
            <Array as="points">
              <mxPoint x="570" y="510"/>
              <mxPoint x="630" y="510"/>
            </Array>
          </mxGeometry>
        </mxCell>
        <mxCell id="p_ErpRYE4Hb0-FulIthc-91" value="t3" style="rounded=0;whiteSpace=wrap;html=1;fillColor=#ffe6cc;strokeColor=#d79b00;" parent="1" vertex="1">
          <mxGeometry x="560" y="470" width="20" height="20" as="geometry"/>
        </mxCell>
        <mxCell id="p_ErpRYE4Hb0-FulIthc-125" style="edgeStyle=orthogonalEdgeStyle;rounded=0;orthogonalLoop=1;jettySize=auto;html=1;strokeWidth=2;fillColor=#f5f5f5;strokeColor=#666666;" parent="1" source="p_ErpRYE4Hb0-FulIthc-92" target="p_ErpRYE4Hb0-FulIthc-115" edge="1">
          <mxGeometry relative="1" as="geometry">
            <Array as="points">
              <mxPoint x="590" y="510"/>
              <mxPoint x="630" y="510"/>
            </Array>
          </mxGeometry>
        </mxCell>
        <mxCell id="p_ErpRYE4Hb0-FulIthc-92" value="t4" style="rounded=0;whiteSpace=wrap;html=1;fillColor=#f5f5f5;strokeColor=#666666;fontColor=#333333;" parent="1" vertex="1">
          <mxGeometry x="580" y="470" width="20" height="20" as="geometry"/>
        </mxCell>
        <mxCell id="p_ErpRYE4Hb0-FulIthc-105" style="edgeStyle=orthogonalEdgeStyle;rounded=0;orthogonalLoop=1;jettySize=auto;html=1;strokeWidth=2;fillColor=#f5f5f5;strokeColor=#666666;" parent="1" source="p_ErpRYE4Hb0-FulIthc-94" target="p_ErpRYE4Hb0-FulIthc-73" edge="1">
          <mxGeometry relative="1" as="geometry">
            <Array as="points">
              <mxPoint x="380" y="450"/>
              <mxPoint x="440" y="450"/>
            </Array>
          </mxGeometry>
        </mxCell>
        <mxCell id="p_ErpRYE4Hb0-FulIthc-94" value="&lt;font color=&quot;#666600&quot;&gt;glue(glue(atomic_, NAME), b)&lt;/font&gt;" style="rounded=0;whiteSpace=wrap;html=1;" parent="1" vertex="1">
          <mxGeometry x="290" y="420" width="180" height="20" as="geometry"/>
        </mxCell>
        <mxCell id="p_ErpRYE4Hb0-FulIthc-98" style="edgeStyle=orthogonalEdgeStyle;rounded=0;orthogonalLoop=1;jettySize=auto;html=1;strokeWidth=2;fillColor=#f5f5f5;strokeColor=#666666;" parent="1" source="p_ErpRYE4Hb0-FulIthc-96" target="p_ErpRYE4Hb0-FulIthc-85" edge="1">
          <mxGeometry relative="1" as="geometry">
            <Array as="points">
              <mxPoint x="540" y="440"/>
              <mxPoint x="480" y="440"/>
            </Array>
          </mxGeometry>
        </mxCell>
        <mxCell id="p_ErpRYE4Hb0-FulIthc-96" value="&lt;font color=&quot;#666600&quot;&gt;TCG_CALL_NO_WG&lt;/font&gt;" style="rounded=0;whiteSpace=wrap;html=1;" parent="1" vertex="1">
          <mxGeometry x="480" y="410" width="120" height="20" as="geometry"/>
        </mxCell>
        <mxCell id="p_ErpRYE4Hb0-FulIthc-99" value="i32" style="rounded=0;whiteSpace=wrap;html=1;" parent="1" vertex="1">
          <mxGeometry x="500" y="450" width="20" height="20" as="geometry"/>
        </mxCell>
        <mxCell id="p_ErpRYE4Hb0-FulIthc-100" value="env" style="rounded=0;whiteSpace=wrap;html=1;" parent="1" vertex="1">
          <mxGeometry x="520" y="450" width="20" height="20" as="geometry"/>
        </mxCell>
        <mxCell id="p_ErpRYE4Hb0-FulIthc-102" value="tl" style="rounded=0;whiteSpace=wrap;html=1;" parent="1" vertex="1">
          <mxGeometry x="540" y="450" width="20" height="20" as="geometry"/>
        </mxCell>
        <mxCell id="p_ErpRYE4Hb0-FulIthc-103" value="i32" style="rounded=0;whiteSpace=wrap;html=1;" parent="1" vertex="1">
          <mxGeometry x="560" y="450" width="20" height="20" as="geometry"/>
        </mxCell>
        <mxCell id="p_ErpRYE4Hb0-FulIthc-104" value="i32" style="rounded=0;whiteSpace=wrap;html=1;" parent="1" vertex="1">
          <mxGeometry x="580" y="450" width="20" height="20" as="geometry"/>
        </mxCell>
        <mxCell id="p_ErpRYE4Hb0-FulIthc-109" value="&lt;b&gt;tcg_gen_callN&lt;/b&gt;" style="rounded=0;whiteSpace=wrap;html=1;strokeColor=#000000;fillColor=#ffffff;" parent="1" vertex="1">
          <mxGeometry x="280" y="520" width="100" height="20" as="geometry"/>
        </mxCell>
        <mxCell id="p_ErpRYE4Hb0-FulIthc-111" value="tcg/tcg.c: 1674~1841" style="text;html=1;align=left;verticalAlign=middle;resizable=0;points=[];;autosize=1;" parent="1" vertex="1">
          <mxGeometry x="280" y="500" width="130" height="20" as="geometry"/>
        </mxCell>
        <mxCell id="p_ErpRYE4Hb0-FulIthc-112" value="void *func" style="rounded=0;whiteSpace=wrap;html=1;strokeColor=#b85450;fillColor=#f8cecc;" parent="1" vertex="1">
          <mxGeometry x="380" y="520" width="60" height="20" as="geometry"/>
        </mxCell>
        <mxCell id="p_ErpRYE4Hb0-FulIthc-113" value="TCGTemp *ret" style="rounded=0;whiteSpace=wrap;html=1;strokeColor=#6c8ebf;fillColor=#dae8fc;" parent="1" vertex="1">
          <mxGeometry x="440" y="520" width="80" height="20" as="geometry"/>
        </mxCell>
        <mxCell id="p_ErpRYE4Hb0-FulIthc-114" value="int nargs" style="rounded=0;whiteSpace=wrap;html=1;strokeColor=#666666;fillColor=#f5f5f5;fontColor=#333333;" parent="1" vertex="1">
          <mxGeometry x="520" y="520" width="60" height="20" as="geometry"/>
        </mxCell>
        <mxCell id="p_ErpRYE4Hb0-FulIthc-115" value="TCGTemp **args" style="rounded=0;whiteSpace=wrap;html=1;strokeColor=#666666;fillColor=#f5f5f5;fontColor=#333333;" parent="1" vertex="1">
          <mxGeometry x="580" y="520" width="100" height="20" as="geometry"/>
        </mxCell>
        <mxCell id="p_ErpRYE4Hb0-FulIthc-127" value="4" style="text;html=1;align=center;verticalAlign=middle;resizable=0;points=[];;autosize=1;" parent="1" vertex="1">
          <mxGeometry x="540" y="510" width="20" height="20" as="geometry"/>
        </mxCell>
        <mxCell id="p_ErpRYE4Hb0-FulIthc-129" value="&lt;span style=&quot;white-space: nowrap&quot;&gt;&lt;b&gt;gen_helper_atomic_fetch_orw_le&lt;/b&gt;&lt;/span&gt;" style="rounded=0;whiteSpace=wrap;html=1;strokeColor=#000000;fillColor=#ffffff;" parent="1" vertex="1">
          <mxGeometry x="240" y="330" width="200" height="20" as="geometry"/>
        </mxCell>
        <mxCell id="p_ErpRYE4Hb0-FulIthc-130" value="&lt;font color=&quot;#999999&quot;&gt;/// 以w大小，小尾端le为例，会调用如下函数，这个函数是用宏拼出来的&lt;/font&gt;" style="text;html=1;align=left;verticalAlign=middle;resizable=0;points=[];;autosize=1;" parent="1" vertex="1">
          <mxGeometry x="240" y="310" width="390" height="20" as="geometry"/>
        </mxCell>
        <mxCell id="p_ErpRYE4Hb0-FulIthc-131" value="ret" style="rounded=0;whiteSpace=wrap;html=1;strokeColor=#6c8ebf;fillColor=#dae8fc;" parent="1" vertex="1">
          <mxGeometry x="440" y="330" width="20" height="20" as="geometry"/>
        </mxCell>
        <mxCell id="p_ErpRYE4Hb0-FulIthc-132" value="cpu_env" style="rounded=0;whiteSpace=wrap;html=1;strokeColor=#666666;fillColor=#f5f5f5;fontColor=#333333;" parent="1" vertex="1">
          <mxGeometry x="460" y="330" width="60" height="20" as="geometry"/>
        </mxCell>
        <mxCell id="p_ErpRYE4Hb0-FulIthc-133" value="addr" style="rounded=0;whiteSpace=wrap;html=1;strokeColor=#82b366;fillColor=#d5e8d4;" parent="1" vertex="1">
          <mxGeometry x="520" y="330" width="40" height="20" as="geometry"/>
        </mxCell>
        <mxCell id="p_ErpRYE4Hb0-FulIthc-134" value="val" style="rounded=0;whiteSpace=wrap;html=1;strokeColor=#d79b00;fillColor=#ffe6cc;" parent="1" vertex="1">
          <mxGeometry x="560" y="330" width="30" height="20" as="geometry"/>
        </mxCell>
        <mxCell id="p_ErpRYE4Hb0-FulIthc-135" value="oi" style="rounded=0;whiteSpace=wrap;html=1;strokeColor=#666666;fillColor=#f5f5f5;fontColor=#333333;" parent="1" vertex="1">
          <mxGeometry x="590" y="330" width="20" height="20" as="geometry"/>
        </mxCell>
        <mxCell id="p_ErpRYE4Hb0-FulIthc-138" value="&lt;b&gt;helper_atomic_fetch_orw_le&lt;/b&gt;" style="rounded=0;whiteSpace=wrap;html=1;strokeColor=#000000;fillColor=#ffffff;" parent="1" vertex="1">
          <mxGeometry x="320" y="580" width="180" height="20" as="geometry"/>
        </mxCell>
        <mxCell id="p_ErpRYE4Hb0-FulIthc-139" value="accel/tcg/atomic_template.h: 300" style="text;html=1;align=left;verticalAlign=middle;resizable=0;points=[];;autosize=1;" parent="1" vertex="1">
          <mxGeometry x="320" y="560" width="190" height="20" as="geometry"/>
        </mxCell>
        <mxCell id="p_ErpRYE4Hb0-FulIthc-141" value="&lt;font color=&quot;#999999&quot;&gt;/// 在运行时调用如下helper函数，这个函数也是宏拼出来的&lt;/font&gt;" style="text;html=1;align=left;verticalAlign=middle;resizable=0;points=[];;autosize=1;" parent="1" vertex="1">
          <mxGeometry x="320" y="540" width="330" height="20" as="geometry"/>
        </mxCell>
        <mxCell id="evB2gcFU7HcfF-IfNhhR-6" value="&lt;font color=&quot;#999999&quot;&gt;/// memOp Idx&lt;/font&gt;" style="text;html=1;align=left;verticalAlign=middle;resizable=0;points=[];;autosize=1;" vertex="1" parent="1">
          <mxGeometry x="610" y="330" width="90" height="20" as="geometry"/>
        </mxCell>
        <mxCell id="evB2gcFU7HcfF-IfNhhR-17" value="&lt;font color=&quot;#999999&quot;&gt;/// memop和idx拼接在一起无符号&lt;/font&gt;" style="text;html=1;align=center;verticalAlign=middle;resizable=0;points=[];;autosize=1;" vertex="1" parent="1">
          <mxGeometry x="450" y="240" width="190" height="20" as="geometry"/>
        </mxCell>
      </root>
    </mxGraphModel>
  </diagram>
</mxfile>
